<?xml version="1.0" encoding="utf-8"?>
<!-- Generator: Adobe Illustrator 24.1.2, SVG Export Plug-In . SVG Version: 6.00 Build 0)  -->
<svg version="1.1" id="Layer_1" xmlns="http://www.w3.org/2000/svg" xmlns:xlink="http://www.w3.org/1999/xlink" x="0px" y="0px"
	 viewBox="0 0 401.7 328" style="enable-background:new 0 0 401.7 328;" xml:space="preserve">
<style type="text/css">
	.st0{fill:#BB2026;}
	.st1{clip-path:url(#SVGID_2_);}
	.st2{fill:#BC2127;}
</style>
<g>
	<polygon class="st0" points="83.8,216.1 41.6,216.1 41.6,203.1 76.6,203.1 198.4,5.3 324.1,201.1 360.7,201.1 360.7,214.1 
		317,214.1 198.6,29.7 	"/>
</g>
<g>
	<polygon class="st0" points="360.7,241.8 304.9,241.8 198.6,77.8 98.2,241.8 41.6,241.8 41.6,228.8 90.9,228.8 198.3,53.4 
		312,228.8 360.7,228.8 	"/>
</g>
<g>
	<path class="st0" d="M297.2,255.6h-194l48.9-77.5l46.2-76.3l50,76.3L297.2,255.6z M126.7,242.6h146.9L237.3,185l-38.6-58.9
		L163.1,185L126.7,242.6z"/>
</g>
<g>
	<defs>
		<rect id="SVGID_1_" y="258.8" width="409" height="58.1"/>
	</defs>
	<clipPath id="SVGID_2_">
		<use xlink:href="#SVGID_1_"  style="overflow:visible;"/>
	</clipPath>
	<g class="st1">
		<g>
			<path class="st0" d="M10.7,335.3c-1.2,0-2.3-0.3-3.4-1c-3.1-1.9-4-5.9-2.1-8.9l35.6-57.7h319.5l40.2,57.4c2.1,2.9,1.3,7-1.6,9.1
				c-2.9,2.1-7,1.3-9.1-1.6l-36.4-51.9H48.1l-31.8,51.5C15,334.2,12.9,335.3,10.7,335.3z"/>
		</g>
		<g>
			<path class="st0" d="M43.4,341.3c-1.1,0-2.3-0.3-3.3-0.9c-3.1-1.9-4.1-5.8-2.2-8.9l23.4-38.8h283.4l24,38.7
				c1.9,3.1,0.9,7.1-2.1,8.9c-3.1,1.9-7.1,0.9-8.9-2.1l-20.2-32.6H68.5L49,338.1C47.7,340.2,45.6,341.3,43.4,341.3z"/>
		</g>
	</g>
</g>
<g>
	<path class="st2" d="M214.9,164.1c-1.8,1.2-3.5,0.9-4.7-0.7c-0.9-1.1-1.6-2.6-2.6-3.6c-1.4-1.2-2.9-2.5-4.6-2.9
		c-3.1-0.7-5.6,1.2-6.3,4.9c-0.9,4.6-1.3,9.2-1.9,14.1h10.4l-0.2,3.2h-10.2l-0.2,2.9c-0.8,11.3-1.5,22.6-2.4,33.9
		c-0.3,3.4-1,6.8-2.2,10c-2.3,5.9-6.7,9.5-13,10.3c-0.4,0-0.8,0.2-1.2,0.4h-1c-1.8-0.8-4-1.3-5.5-2.6c-1.2-1.1-2-2.9-2.4-4.6
		c-0.4-1.9,0.8-3.5,2.8-4.1c1.9-0.6,3.3,0.2,4.1,1.9c0.4,0.9,0.6,2,1,2.9c0.6,1.8,1.7,3,3.8,2.9c2-0.1,3.3-1.3,3.8-3.1
		c0.6-1.8,1.2-3.6,1.4-5.5c1.2-14.6,2.2-29.2,3.3-43.8c0-0.4-0.1-0.8-0.1-1.5h-7.6l0.2-3.1h7.6c0.3-2.1,0.5-3.9,0.8-5.8
		c1.4-8.8,6.1-14.2,14.2-16.2c0,0,0,0,0.1,0c0.5-0.1,3.1-0.6,5.5-0.1c0,0,0,0,0,0c0.3,0.1,0.6,0.2,0.8,0.2h0
		c1.6,0.5,3.3,0.9,4.8,1.7c1.2,0.6,2.3,2,2.9,3.3C217.3,161,216.8,162.9,214.9,164.1z"/>
</g>
</svg>
